<svg width="141" height="29" viewBox="0 0 141 29" fill="none" xmlns="http://www.w3.org/2000/svg">
<rect x="2" y="1" width="44" height="21" rx="5" fill="white"/>
<path fill-rule="evenodd" clip-rule="evenodd" d="M43.3097 0H4.43276C1.97244 0 -0.0192437 2.01121 0.0001403 4.452V19.292C0.0001403 21.7523 1.99197 23.744 4.45229 23.744H22.8656L31.2815 28.4303L29.3679 23.744H43.3097C45.7701 23.744 47.7617 21.7523 47.7617 19.292V4.452C47.7617 1.99168 45.7701 0 43.3097 0ZM3.61274 3.43663C3.066 3.47568 2.65594 3.67095 2.38258 4.04194C2.10921 4.39342 2.01158 4.84252 2.07016 5.35021C3.22221 12.6726 4.29616 17.6128 5.292 20.1707C5.68253 21.1079 6.13164 21.5571 6.65885 21.5181C7.47895 21.4594 8.45527 20.3269 9.60732 18.1205C10.2126 16.8707 11.1499 14.9963 12.4191 12.4968C13.4735 16.1873 14.9184 18.9601 16.7345 20.8151C17.2422 21.3423 17.7694 21.5766 18.277 21.5375C18.7262 21.4985 19.0775 21.2642 19.3119 20.8345C19.5072 20.4636 19.5853 20.034 19.5462 19.5458C19.429 17.769 19.6049 15.2891 20.093 12.1063C20.6006 8.8259 21.2255 6.46321 21.987 5.05732C22.1432 4.76442 22.2018 4.47152 22.1823 4.12005C22.1432 3.67094 21.948 3.29995 21.577 3.00705C21.206 2.71416 20.7959 2.57748 20.3468 2.61652C19.7805 2.65558 19.3509 2.92894 19.0581 3.47568C17.8475 5.68216 16.9883 9.25548 16.4807 14.2152C15.7386 12.3406 15.1137 10.1342 14.6256 7.53715C14.4108 6.38511 13.8836 5.83837 13.0244 5.89695C12.4386 5.93599 11.9505 6.32653 11.56 7.06852L7.28369 15.211C6.58074 12.3797 5.91684 8.92353 5.31153 4.84252C5.17485 3.82716 4.60858 3.35852 3.61274 3.43663ZM41.24 4.84258C42.6264 5.13549 43.6613 5.87749 44.3642 7.10764C44.9891 8.16207 45.3014 9.43128 45.3014 10.9543C45.3014 12.9655 44.7938 14.801 43.7784 16.4803C42.6068 18.4329 41.0838 19.4092 39.1897 19.4092C38.8578 19.4092 38.5063 19.3701 38.1352 19.292C36.7489 18.9992 35.714 18.2572 35.011 17.027C34.3863 15.9531 34.0738 14.6644 34.0738 13.1608C34.0738 11.1496 34.5815 9.31411 35.5969 7.65438C36.788 5.70175 38.311 4.72543 40.1856 4.72543C40.5175 4.72543 40.869 4.76449 41.24 4.84258ZM40.4199 15.4063C41.1424 14.7619 41.6305 13.8051 41.9039 12.5164C41.982 12.0673 42.0406 11.5792 42.0406 11.0715C42.0406 10.5052 41.9234 9.89991 41.6891 9.29459C41.3962 8.53306 41.0056 8.12301 40.537 8.02538C39.8341 7.88869 39.1507 8.27922 38.5063 9.23602C37.9791 9.97801 37.6471 10.7591 37.4714 11.5596C37.3737 12.0088 37.3347 12.497 37.3347 12.9851C37.3347 13.5513 37.4518 14.1566 37.6862 14.7619C37.9791 15.5235 38.3696 15.9335 38.8382 16.0312C39.3264 16.1288 39.8536 15.914 40.4199 15.4063ZM32.1212 7.10764C31.4182 5.87749 30.3638 5.13549 28.9969 4.84258C28.6259 4.76449 28.2745 4.72543 27.9424 4.72543C26.068 4.72543 24.545 5.70175 23.3538 7.65438C22.3384 9.31411 21.8308 11.1496 21.8308 13.1608C21.8308 14.6644 22.1432 15.9531 22.768 17.027C23.471 18.2572 24.5059 18.9992 25.8922 19.292C26.2632 19.3701 26.6147 19.4092 26.9467 19.4092C28.8407 19.4092 30.3638 18.4329 31.5353 16.4803C32.5508 14.801 33.0584 12.9655 33.0584 10.9543C33.0584 9.43128 32.7459 8.16207 32.1212 7.10764ZM29.6608 12.5164C29.3875 13.8051 28.8992 14.7619 28.1768 15.4063C27.6105 15.914 27.0833 16.1288 26.5952 16.0312C26.1265 15.9335 25.736 15.5235 25.4431 14.7619C25.2088 14.1566 25.0916 13.5513 25.0916 12.9851C25.0916 12.497 25.1307 12.0088 25.2284 11.5596C25.4041 10.7591 25.736 9.97801 26.2632 9.23602C26.9077 8.27922 27.5911 7.88869 28.2939 8.02538C28.7626 8.12301 29.1532 8.53306 29.446 9.29459C29.6804 9.89991 29.7975 10.5052 29.7975 11.0715C29.7975 11.5792 29.7585 12.0673 29.6608 12.5164Z" fill="#7F54B3"/>
<path fill-rule="evenodd" clip-rule="evenodd" d="M52.7019 6.93184C51.3936 8.22058 50.7493 9.86078 50.7493 11.8525C50.7493 13.9809 51.3936 15.7187 52.6825 17.027C53.9712 18.3353 55.6504 18.9991 57.7397 18.9991C58.345 18.9991 59.0285 18.9015 59.7705 18.6866V15.5234C59.0871 15.7187 58.5013 15.8164 57.9935 15.8164C56.9586 15.8164 56.1386 15.4649 55.5137 14.7814C54.8889 14.0784 54.5765 13.1412 54.5765 11.9501C54.5765 10.8371 54.8889 9.91936 55.4942 9.21641C56.119 8.49394 56.8805 8.14247 57.8179 8.14247C58.4232 8.14247 59.0675 8.24009 59.7705 8.43536V5.2721C59.1262 5.09636 58.4037 5.01825 57.642 5.01825C55.6504 4.99872 54.0102 5.6431 52.7019 6.93184ZM66.2533 4.99872C64.4568 4.99872 63.0509 5.60404 62.0355 6.79514C61.0202 7.98626 60.532 9.66553 60.532 11.8134C60.532 14.1371 61.0396 15.9139 62.0355 17.1441C63.0314 18.3743 64.4959 18.9991 66.4095 18.9991C68.2644 18.9991 69.6898 18.3743 70.6856 17.1441C71.6815 15.9139 72.1892 14.1761 72.1892 11.9501C72.1892 9.7241 71.6815 8.00578 70.6662 6.79514C69.6313 5.60404 68.1667 4.99872 66.2533 4.99872ZM67.7958 15.1524C67.4443 15.6992 66.9171 15.9726 66.2533 15.9726C65.6284 15.9726 65.1597 15.6992 64.8278 15.1524C64.4959 14.6056 64.3397 13.5122 64.3397 11.8525C64.3397 9.29452 64.984 8.0253 66.2923 8.0253C67.6591 8.0253 68.362 9.31405 68.362 11.9111C68.3426 13.5122 68.1473 14.6056 67.7958 15.1524ZM81.8352 5.36972L81.1322 8.35726C80.9566 9.11878 80.7809 9.89984 80.6246 10.7004L80.2341 12.7703C79.8631 10.7004 79.3554 8.24009 78.711 5.36972H74.1809L72.4821 18.6672H75.8797L76.7974 9.5093L79.1211 18.6672H81.5424L83.7683 9.52883L84.7251 18.6672H88.2789L86.4825 5.36972H81.8352ZM98.1006 5.36972L97.3978 8.35726C97.2219 9.11878 97.0463 9.89984 96.89 10.7004L96.4995 12.7703C96.1285 10.7004 95.6208 8.24009 94.9764 5.36972H90.4463L88.7476 18.6672H92.1451L93.0628 9.5093L95.3864 18.6672H97.8078L100.014 9.52883L100.971 18.6672H104.525L102.728 5.36972H98.1006ZM109.153 13.4146H112.335V10.6614H109.153V8.22057H112.824V5.38925H105.56V18.6866H112.843V15.8554H109.153V13.4146ZM122.958 11.3057C123.329 10.7004 123.524 10.0756 123.524 9.43121C123.524 8.18152 123.036 7.18568 122.06 6.4632C121.083 5.74073 119.736 5.36972 118.057 5.36972H113.878V18.6672H117.471V12.614H117.529L120.439 18.6672H124.227L121.357 12.6726C122.04 12.3602 122.587 11.911 122.958 11.3057ZM117.451 11.0909V7.92767C118.31 7.9472 118.916 8.08388 119.287 8.35726C119.658 8.63063 119.833 9.0602 119.833 9.68504C119.833 10.6028 119.033 11.0714 117.451 11.0909ZM125.632 6.93184C124.324 8.22058 123.68 9.86078 123.68 11.8525C123.68 13.9809 124.324 15.7187 125.614 17.027C126.903 18.3353 128.581 18.9991 130.671 18.9991C131.276 18.9991 131.96 18.9015 132.701 18.6866V15.5234C132.018 15.7187 131.432 15.8164 130.924 15.8164C129.89 15.8164 129.07 15.4649 128.445 14.7814C127.82 14.0784 127.508 13.1412 127.508 11.9501C127.508 10.8371 127.82 9.91936 128.425 9.21641C129.05 8.49394 129.811 8.14247 130.748 8.14247C131.353 8.14247 131.998 8.24009 132.701 8.43536V5.2721C132.057 5.09636 131.335 5.01825 130.574 5.01825C128.601 4.99872 126.941 5.6431 125.632 6.93184ZM137.29 15.8164V13.395H140.472V10.6418H137.29V8.20105H140.98V5.36972H133.717V18.6672H141V15.8358H137.29V15.8164Z" fill="white"/>
</svg>
